/* XPM */
static char *bricksx64[] = {
/* columns rows colors chars-per-pixel */
"64 64 93 2 ",
"   c #2D1A1A",
".  c #341E1E",
"X  c #262524",
"o  c #3A2121",
"O  c #302F2D",
"+  c #343331",
"@  c #3E3D3B",
"#  c #441D1D",
"$  c #481F1F",
"%  c #45201D",
"&  c #48221F",
"*  c #4B2120",
"=  c #542323",
"-  c #5C2424",
";  c #5F2925",
":  c #5E2828",
">  c #403F3C",
",  c #622726",
"<  c #682723",
"1  c #622A26",
"2  c #6D2926",
"3  c #642928",
"4  c #6C2B2B",
"5  c #742C25",
"6  c #7B2C24",
"7  c #732E2C",
"8  c #782F2A",
"9  c #6E312C",
"0  c #74322D",
"q  c #7C322C",
"w  c #7E392E",
"e  c #763230",
"r  c #793332",
"t  c #474643",
"y  c #504E4C",
"u  c #53514E",
"i  c #6C6966",
"p  c #6E6D69",
"a  c #706E6B",
"s  c #74736F",
"d  c #802F27",
"f  c #83342C",
"g  c #8A362C",
"h  c #85382F",
"j  c #8E392F",
"k  c #9A3625",
"l  c #9D3927",
"z  c #953C2D",
"x  c #993E2E",
"c  c #833631",
"v  c #843B31",
"b  c #8A3A32",
"n  c #913C31",
"m  c #9C3F30",
"M  c #A23E2A",
"N  c #99402F",
"B  c #9C4332",
"V  c #A5432E",
"C  c #A8452F",
"Z  c #A64A2E",
"A  c #A54631",
"S  c #A94731",
"D  c #A74832",
"F  c #AB4932",
"G  c #AB5132",
"H  c #C3563F",
"J  c #C35E3F",
"K  c #846B66",
"L  c #856E69",
"P  c #87726C",
"I  c #89746E",
"U  c #8B7771",
"Y  c #8E7C76",
"T  c #8F7F79",
"R  c #91827C",
"E  c #938680",
"W  c #958B84",
"Q  c #978E88",
"!  c #97908A",
"~  c #99948D",
"^  c #9B9790",
"/  c #9B9891",
"(  c #B49286",
")  c #B89E91",
"_  c #B9A38F",
"`  c #B9A495",
"'  c #BAA799",
"]  c #BBAC9D",
"[  c #BDB09F",
"{  c #BEB3A4",
"}  c #BEB7A9",
"|  c #BFB9AA",
" . c #C0BBAD",
/* pixels */
"/ 1 : r r r r r r r r c r c r c c r r r r r r r r r r r r r  . . . .r r r r r r r r r r r r r r r r r r r r r r r c r b b b  ./ ",
"1 : 3 F F F F F F F n n n n n r r r r c r r c r r n n n r n n  . .r H H H H r r r r r r r r r r r r r r r F r c H b b b r r 4 / ",
": F F F F F F F F n F F n A D D S S S F F F F F n n n F B n n  .r H F F F F F F H F F F F F F F F F F r F F D D B A c r r r :  .",
": F F F F F F F F F F F F n F F F S F F F F F F F n F F F n n  .r H F F H F F F F F F A H A A A A A F F F F D b A A b b c r :  .",
": F F S F F n F S F S S n F n n n n F F S S S A F F D A n n n  .r F F F F F F F F F F F F S A S D D b A F F S S A F b b b r r  .",
": F S S S j n n F F n A n n n n A n n F S S S A D D A D n r n  .r F F F F b F F A F F F F S S V D F b A D b S A A A A F b r r  .",
": A b j j j j n n j n n n n n n n n n n n S S A D B r n n r n  .r F F b F b c F A b b A b F b b b m b b b b b b b b b c c A c  .",
"- V b j S b j j j j g n n n r b n b n b n n n b n n r r r r r  .r D A A F c F b b b F b b b b b b b b b c b c b b c b c c r r } ",
"= j b j g b 7 j j e n b g e e e e b j j C j b r n b e r e e e | r F c F c c S c c c b c b c c c r r r c c c c r c c c c c c c E ",
"= g g g g g 7 7 7 7 7 b b g g 7 b e g j 7 r 7 b 7 r 7 7 e e e | r m c c c c c c c j b b V c b e 7 7 c e c c c c c r M r d d r W ",
"= 7 g g g g g g 7 7 7 7 g g g g e 7 7 e e 7 7 e 7 r 7 : 7 7 e } r m c r c 7 c c f c c f f c 7 4 4 7 4 4 4 4 4 4 e r 7 4 8 r = E ",
"= 4 f 7 4 g 7 4 4 7 4 7 7 g 7 7 4 7 4 9 7 7 7 7 7 7 7 = : 7 = } r c c 7 7 7 d 4 4 4 c d r r 4 4 4 4 4 4 = 4 4 3 4 4 7 , 7 4 U E ",
"= 4 4 4 c g 4 7 4 7 4 4 c 4 4 4 - = = 9 4 7 4 4 4 4 4 7 4 = - } 4 8 8 4 d 4 4 4 4 4 4 e 8 4 3 4 , , = $ , $ $ , , , , , , 2 , E ",
"= 4 4 g 4 4 4 4 4 4 = = = = = = * * = * = 4 4 4 7 7 7 7 7 : -  .e 7 7 e 4 7 4 , , , , , , , , $ , $ $ $ - # $ : - - - - , - $ W ",
") E 4 4 4 = = = - = = = = = = E @ @ > > : : : . o : - = = = R p T 7 7 7 4 4 4 4 , 4 , , , 4 4 3 = . . = = = . = 4 4 4 4 4 = - U ",
"/ / / / / /  . . .| |  . . . .^ / / / / / / /  . . ./ / / / s s s ^  . .}  .^ ^ ^ ^ ^  . . .| |  . . .}  . . . . . . . .O + / / ",
"r r r r r , + t / r r r r r r r r r r r r r r r r r r r r F F F r r r b r r r / r r F F r r r r S S S F c r r r r r r r F F r r ",
"F F F r r r r + / r r H H H F F F F F F F F F S F F F F F F F F F F F n F b r / r F F F F S r F S S F F F F r S S S F H F F F F ",
"F F F F F r r r ^ r F F F H F F F F F F F F F F F H F F F F F F F F F H F b r / r F F H F F c S F F F F F F F F F F F H H F F F ",
"F S F S F S r r ^ r F H H F F F H H F F b j F F F F F F F F F F F F F F H F b s r F F H H F F F F n F F F F F F F F F F F F F F ",
"S n n n S S r r  .e S S F b S F F S F b b F F F S b b b b b b b b b F F S b r s r F F F F F H F F F S n n F F F S F S F F F S F ",
"n n j n n S C r  .S S F b b S S S b b b b b c n b b b b b b b b b b b b b b b s r F F F F S F S F F S S S n F F F F S S S S S S ",
"j j j j j j C r } C S S C S S S S b b h b b b b b b r b b b g b b b b b c b c K r S F F S S S S n n n n n n S m S A m S S m S n ",
"j n j j j j C 7  .V C S f V f S h f h h c g c c c b f b c c c e c b A F S S c a r C V n j j n j n n n n n n m V j j n V V j n n ",
"g g g g j g g 7 } 7 m m c M c V f f f 0 7 f 7 f 7 7 7 7 7 7 e 7 c c c M g f e i r M j g g j g g g g g g g g g g j j g g g g 4 g ",
"g 4 g g g g g 7 { 7 f M M f f M f q f 4 q f f 7 q 7 4 7 d 7 7 7 8 c c M d r 4 i j f g g f g g g g g M f g g g g g g g g g g 4 g ",
"g d d g d d 4 4 [ 4 d 8 d d q 8 q 8 4 4 2 q 4 2 4 4 4 4 4 4 4 2 8 8 d 8 8 e 4 W e f f d g 4 d d g d d g f 4 d f d f 4 f f d 4 4 ",
", d d d d 8 , , Q 8 , , , , , , , , 3 5 , , , 5 , , , 3 , , , < , , 7 8 , , , E 7 , , , , , , , , , , d , , d d d d d , , , , , ",
"- d 6 6 6 6 - , O 6 - , - $ # # < - - < - - , , < < , 2 5 5 - - - , - 2 - - - R 4 : - - - - - - , - - - - - , - - - - 8 6 6 - - ",
"= 6 6 6 5 6 = - O X - # # - # - - - # - - - - < = - = = = = = - = = = = - # # R 3 = = = = = = # = # # - = = = = = = 6 = 6 = = - ",
", d g g , , , ( p X X #     - - # # - - - - - - - - , , , , , 4 4 4 4 4 4 = ' ~ ! 7 e r e , : : 4 = # - # - , 4 - - - = - , - = ",
"} ~ / / ~ ~ s s s s / / ~ ^ ^  .} } } } } } } {  . . . . . . . . . . . .|  .| ^ / / | | | | s  .|  .} }  . .}  . .}  . .| } } { ",
"r r r r r r r r r r r r r r r r r r r r r B r  . .: 1 w r w w w r w w w r r w r w w w w 9 w w w u w w w w t s / / r r r r r r r ",
"F F F F H H H H H F F F F F F F F r r B B B r r  .: w v r w 9 w G G r r r r G r G G J J G G G G G G G e w : t / r r D D r F F F ",
"F F F F F F F F F F F F F F F F F F F r B B r r  .w u G G G G G G G G G w G G G J G G J J G G G G G G G G G 1 / r G e G F F H H ",
"F F F F F F F F F F F F F F F F F r F r r B B r  .r G v G G G G G G G G G G G G G G G J G J G G v v v v G G 1 / r r D D F F H H ",
"F F F F F F F F F F F F B B B F F r F F D D r r  .r G G G G G G G G G J G G G G G G J G G J G G G G v v v G w / r F F F F H F F ",
"F B F F F F F B F F B D B B B F F F F F G D B r  .w G v G G v v G G G G G G G G G G G G G G G G G v v v w w w / r F F F H F F B ",
"B F F B F B B B B B B B B B B F F F F F G D B 9 y w G G v v v G G G G G G G v v G v v v v v G G G v v v r w r / e S S S H F F F ",
"B B D F B F B B B b B B B B B B B B B B B G B + + v G v G G G v v v v G G v v v v v v v v v v v v G G v v 9 u / e S S S V S m n ",
"b B m B B B B c B B c c c B B B B B B B B B B t s v G G v v v v v v G v G v v v v v w w w w v v w v w w v 0 0 ^ e V S V f f f n ",
"c r m n B B b c c m c B B B c B B B B B B B B r s v v G G v v v v v v v v w w v w v w w w 9 w w w Z w w w w 0 } 4 e M m e M q V ",
"r c c c m c c c c c c r b c B c c c B B B B B r s v v w v v v v v v v u w w w w w w 9 w 9 w w w w w w Z w w 0 } 7 7 m r e 8 8 q ",
"r c r c c r c c r r r r r c c m c B c c m m n r p 0 w w w w w w w w v v w w Z w 9 9 w 9 9 9 9 9 w w w 0 0 9 9 { 4 M M d 8 4 8 8 ",
"8 8 8 8 r r M f 7 7 e e 7 c d r f x r f r r n e i 9 9 w 0 w A e w w w w 0 w Z 0 9 w w 9 1 w 9 w 9 q 0 w 0 4 = { ) M , 6 4 , 8 7 ",
"4 7 6 5 e 7 7 7 4 = * 4 4 4 4 4 7 8 4 8 e 7 4 = R 9 4 4 9 4 4 4 1 1 1 9 1 1 1 9 1 ; 1 1 & ; 1 5 1 1 ; ; 3 * * Q < l , , , , 5 4 ",
"2 2 < < 2 4 2 < $ $ $ , , , , 4 3 , , , 4 , $ , U & & 1 1 ; 4 , 1 1 ; ; ; ; 1 ; ; ; ; ; & % ; ; ; ; ; ; $   U W - - - , $ - 2 2 ",
"= = , = = = - y u u u       # # $ $ # # # $ # L L P % % % % $ $ % % % % % % % % % P L L L K % ; ; ; = ;     I W P , - # # = - - ",
"[ [ [ [ } Q Q W W E T Y T E W W Q ] ] ] { ] ] Q ] ] ] { } } } } |  .| | } }  . .| ~ ~ Q W W W W i { p  . .~ ~ / ~ ~ ~  .!  . .[ ",
"r r r r r r : : r S F F F F S r  .3 : r r r r r r r r r r r r r r r r r r r r r r r r r r r r s p s + 1 r r r r r r r r r r r r ",
"B B m B B B r F F F F F F F S r  .: 3 r S r F F F F A F F F F r F F F F F F F F F c r c c c r s s + ; w r e e e F F F F S F e m ",
"B m A B F B F B F F F F H F F r  .3 r F S F F F F F F F F F F F F F F F F F F F F F F F c c b s s r 0 G F F F F F S F m F S S S ",
"F F F F B F F F F F B F F F F r  .3 r S F F c H F F c F F F F F F F F F F F c F c F F F F F b s | r F F F F H F B S S A S F C C ",
"F F F B F B F F F B F B F F F r / r r r F F c F F c F F F F F F F F F F F c c b b F F F F F c ^ / r F F F S D N C A m x m M x C ",
"F F F B F B B B F B F B B B F / / r r r c F c S b c c c c b c c c c c c c F c F c F F F F F e e ^ r D C C C C C m x x x m m x M ",
"F F F B B B b c b B B m A m F r / r r F c c c A F c F c c c c b c c b c c F c c c c S c S S S e ! 0 C C C x C x x z z z z M M z ",
"S c B B c c B B c m m B B B B 7 s r e c c c c c c c c c c c c c c c c c c c S S F f c f f V S 7 Q 7 C M M V k n z 0 8 z M z M M ",
"c q c c m c r c c c m m n B m e a e c c c r c c c e c e c r c c c c c c c 8 8 c r d r q r V M 4 E 4 q 8 8 j 8 8 j 5 j z 5 M M M ",
"q q r f q q f q n x x q m n m 7 i 7 8 c 8 c c 7 4 7 e 7 7 M r c r 8 7 8 7 8 8 8 8 8 8 8 8 M M = T 4 4 7 j 6 5 8 5 5 5 5 5 4 4 2 ",
"e 7 q 8 q 8 8 q n n z z z z 4 4 E - 8 8 8 8 7 7 e 4 4 4 4 4 4 4 4 4 7 4 7 7 4 7 5 7 7 4 4 l 4 * U , 5 4 5 4 , 2 2 2 2 4 < 2 2 5 ",
"4 4 5 5 M 5 8 e 8 6 k j 4 4 4 4 R = 4 e 7 4 3 4 4 4 , 4 4 3 , , 3 , 3 , , 4 4 2 , 2 2 2 , - , , L , # , - - , < k < 4 - - - - , ",
"* 4 3 4 2 2 3 5 g g 3 2 g < 3 , Y * $ , 4 3 , , , , , , $ , , , , - , , , , - 2 4 - - - - # # u K # = - - - < - - - - = - # # # ",
"* * $ $ & * * &       $ $ $ $ I I I $ $ - , , , - , - $ - - - : - - $   # $ - = = = = # # # # y y # # $ $ $ $ $ $ $ $ # # # # # ",
"[ [ [ ] ] ` _ ` ` ` ` ` ` ` ` ` ' ' ' ] ' ' ] ] ] ] ] ' ] ] ' ' ' ' ' ' ' ] ] ' ' ) ) ) ) ) ) ' ' ' ' ` ' ` ' ` ` ` ' ' ' ' ' ) "
};