/* XPM */
static char *fish_klein[] = {
/* columns rows colors chars-per-pixel */
"16 16 30 1 ",
"  c black",
". c #22343B",
"X c #400000",
"o c #62343B",
"O c #000040",
"+ c #22347B",
"@ c #29587B",
"# c #404040",
"$ c #446776",
"% c #62737B",
"& c #800000",
"* c #BF0000",
"= c red",
"- c #804040",
"; c #000080",
": c #082480",
"> c #0000BF",
", c #0824BF",
"< c #0F4880",
"1 c #0F48BF",
"2 c #317CBA",
"3 c #404080",
"4 c #476480",
"5 c #4B8BB5",
"6 c #659BB0",
"7 c #4B8BF5",
"8 c #808080",
"9 c #BFBFBF",
"0 c SkyBlue",
"q c white",
/* pixels */
"qqqqq9;39q839q8O",
"qq9#$$@:>981;O,+",
"q998$%#6$Oq82749",
"q.8 6% 6069q8$qq",
"8$$06$600068669q",
"&==&*=*o0000008q",
"8#-&&##*o00000$q",
"98#88## *606@0$q",
"qqq     &$05,$$q",
"q88     &$5<>$8q",
"9#88##8X*66;.69q",
"&=&&-#&=o0000$qq",
"9.&&==*o000008qq",
"q%00$$600000%qqq",
"qq%6000000$8qqqq",
"qqq98$$$%8qqqqqq"
};
