/* XPM */
static char * fish_monster_xpm[] = {
"32 32 6 1",
" 	c #FFFFFFFFFFFF",
".	c #000000000000",
"X	c #00000000FFFF",
"o	c #1E1E9090FFFF",
"O	c #8787CECEEBEB",
"+	c #FFFF00000000",
"            ...      ..       ..",
"           .XXX..    .X..   ..X.",
"       ......ooXX.   .X.X...X.X.",
"     ...OOOOO...XX.  .ooX.X.XoO.",
"    .   .OO...OO..X.  ..ooXoo.. ",
"   .  ...O.  ..OOO..    .OOO.   ",
"  ..  ...O. ...OOOO.     .O.    ",
"  .O....OOO...OOOOOO.    .O.    ",
" .OOOOOOOOOOOOOOOOOOO.  .OO.    ",
" .....OOO....OOOOOOOOO..OOOO.   ",
".+++++...++++..OOOOOOOOOOOOO.   ",
".++++++++++++++.OOOOOOOOOOOO.   ",
" ....+++++....++.OOOOOOOOOOOO.  ",
" . . ..... . ..++.OOOOOOOOOOO.  ",
" . . . . . . ...+.OOOOO..OOOO.  ",
"  . .. . .......++.OOOOOo.OOO.  ",
"      ...........+.OOOO.oX.OO.  ",
"      ...........+.OOOOo.X.OO.  ",
"   .  ...........+.OOO.oX..O.   ",
"  . .............+.O.oo.XX.O.   ",
"  . . . ..... ..++.OO.XX..OO.   ",
" .... . . . . .++.OOOO...OO.    ",
".+++..... . ..+++.OOOOOOOOO.    ",
".++++++++...++++.OOOOOOOOOO.    ",
" ...+++++++++++.OOOOOOOOOO.     ",
"  .O....+++++..OOOOOOOOOOO.     ",
"  .OOOOO.....OOOOOOOOOOOO.      ",
"   .OOOOOOOOOOOOOOOOOOOO.       ",
"    .OOOOOOOOOOOOOOOOO..        ",
"     ..OOOOOOOOOOOOO..          ",
"       ...OOOOOOO...            ",
"          .......               "

};
