/* XPM */
static char *_0e7f3778532402aca7901a4cd9911c4Te3oqisU82HJnkAV[] = {
/* columns rows colors chars-per-pixel */
"28 64 162 2 ",
"   c None",
".  c #0C0A0C",
"X  c #151115",
"o  c #1B171A",
"O  c #1E191D",
"+  c #27191B",
"@  c #371C1E",
"#  c #231D22",
"$  c #331D20",
"%  c #252226",
"&  c #26262A",
"*  c #2C262B",
"=  c #2B292C",
"-  c #232B2F",
";  c #322A27",
":  c #312C2D",
">  c #392C2B",
",  c #252D31",
"<  c #233135",
"1  c #27393C",
"2  c #323336",
"3  c #3E3837",
"4  c #36363C",
"5  c #393A3D",
"6  c #532225",
"7  c #5A2427",
"8  c #552528",
"9  c #5D2629",
"0  c #4C3C32",
"q  c #523539",
"w  c #65292C",
"e  c #6D2C2F",
"r  c #6F2D31",
"t  c #712E31",
"y  c #7B3539",
"u  c #5E4B3E",
"i  c #58453A",
"p  c #614D3E",
"a  c #3D3E41",
"s  c #483B40",
"d  c #5F3E43",
"f  c #2A4145",
"g  c #2E464B",
"h  c #2F494E",
"j  c #3F4046",
"k  c #35484E",
"l  c #314C52",
"z  c #38575D",
"x  c #355257",
"c  c #3B5B62",
"v  c #3F6068",
"b  c #404147",
"n  c #4B454A",
"m  c #46494C",
"M  c #46474E",
"N  c #544146",
"B  c #4C4E55",
"V  c #4E5057",
"C  c #5A5E5E",
"Z  c #55595B",
"A  c #654F40",
"S  c #694548",
"D  c #774746",
"F  c #6E5748",
"G  c #6E5545",
"H  c #765D4F",
"J  c #6E5758",
"K  c #7D6352",
"L  c #756254",
"P  c #5B5E63",
"I  c #625F62",
"U  c #41656C",
"Y  c #486266",
"T  c #4B737B",
"R  c #577377",
"E  c #696E6E",
"W  c #636769",
"Q  c #6D7373",
"!  c #787D7D",
"~  c #863539",
"^  c #933B3F",
"/  c #853E42",
"(  c #943E42",
")  c #854040",
"_  c #894044",
"`  c #9A4146",
"'  c #805A5C",
"]  c #9C5A5D",
"[  c #AC464B",
"{  c #A6494D",
"}  c #AC484D",
"|  c #A44548",
" . c #B64A4F",
".. c #826453",
"X. c #84696B",
"o. c #886D6F",
"O. c #946567",
"+. c #987662",
"@. c #857C78",
"#. c #957A7B",
"$. c #A37E68",
"%. c #A7826B",
"&. c #BD9378",
"*. c #C69A7E",
"=. c #4F7982",
"-. c #4D7780",
";. c #507A83",
":. c #55828C",
">. c #59858E",
",. c #578791",
"<. c #5A8B96",
"1. c #5D8F9A",
"2. c #5F919C",
"3. c #7C8383",
"4. c #608A94",
"5. c #60949F",
"6. c #6296A1",
"7. c #649AA5",
"8. c #669DA9",
"9. c #689FAB",
"0. c #69A1AD",
"q. c #6CA5B1",
"w. c #6EA9B6",
"e. c #72AFBC",
"r. c #898B8A",
"t. c #968788",
"y. c #9D948C",
"u. c #8D9494",
"i. c #939596",
"p. c #969E9F",
"a. c #999595",
"s. c #A39B9C",
"d. c #9BA3A3",
"f. c #A9A5A6",
"g. c #A7AFAF",
"h. c #ABB4B4",
"j. c #B5BEBE",
"k. c #BCBEBE",
"l. c #CA9D81",
"z. c #C59A81",
"x. c #DDAC8D",
"c. c #D4A487",
"v. c #DBAE91",
"b. c #E1AF90",
"n. c #EBB695",
"m. c #EDB997",
"M. c #E4B495",
"N. c #F5BE9C",
"B. c #FAC19F",
"V. c #FDC5A1",
"C. c #FFCBA8",
"Z. c #BAC4C4",
"A. c #BAC4C4",
"S. c #C4CDCC",
"D. c #D5CDCC",
"F. c #C7D1D1",
"G. c #CBD5D5",
"H. c #CFD9D9",
"J. c #D3DDDD",
"K. c #D6E1E1",
"L. c #D9E4E4",
"P. c #EEEEEE",
/* pixels */
"                                                        ",
"          o O                                           ",
"          + * V 4 E 5 m                                 ",
"        o   * * + = = Q C                               ",
"          * * * * * * * Q C                             ",
"        * # * * * * * * % W y                           ",
"        X s & * * * * # * a {                           ",
"        n # & * * * * * O * D t                         ",
"        % = n = * I > ; # + % 9                         ",
"      O   % 0 = u a.p = p % #                           ",
"          X %.a.F H 3 P.@.K G                           ",
"          . &.q C.V.+.D.D B.b.                          ",
"            *.*.b.C.V.n.z.V.                            ",
"              C.B.V.V.V.V.K                             ",
"                m.B.B.m.; .                             ",
"              p.L.K L r.H.                              ",
"              J.u.p S.F.]  .~                           ",
"          y  .X.Q B K.}  . . .n 2                       ",
"           . ./ 3.P k. . . .N V V                       ",
"        5 [  .^ j.K.}  . .} B V V B                     ",
"        B }  .~ h.]  . . .` = V V V M                   ",
"        B }  .' j.{  . . .w   & B V b.                  ",
"      5 V }  .t.S. . . .[ 6     % z.V.n.                ",
"        V }  .s.H. . . .e         i N.V.&.              ",
"        N.[ } f.K. . .[ 9           ..V.B.              ",
"      %.V.|  .f.K. . . .7             $.V.B.            ",
"      x.N.[  .a.K. . . .6               c.V.l.          ",
"      B.*. . .y.K. . . .w               0 N.V.          ",
"      V./  . .#.J.[  . .w                 A v.S.        ",
"      V.D  . .o.H.{  . .9                   d.K.g.      ",
"      N.#._ y X.F.O.D d J                   Z W V 4     ",
"    +.B.E a.g.h.u.h.Z.Z.d.2                   = B V ..  ",
"    y.n.g 1 , - , , 1 g U T                   % % V l.  ",
"    F.! e.6.q.9.e.6.e.e.7.7.                      A   l.",
"    B , e.e.q.2.w.e.e.e.<.8.                        ..  ",
"    B k e.q.e.<.e.e.e.e.e.=.                            ",
"  b s Y e.e.e.1.e.e.e.e.e.<.                            ",
"  a i R e.e.e.w.9.e.e.e.e.,.                            ",
"      ,.e.e.e.w.T e.e.e.e.5.                            ",
"      1.e.e.e.w.f e.e.e.e.0.                            ",
"      7.e.e.e.q.  e.e.e.e.e.                            ",
"      8.e.e.e.9.  w.e.e.e.e.                            ",
"      q.e.e.e.7.  <.e.e.e.e.                            ",
"      w.e.e.e.6.    e.e.e.e.:.                          ",
"      e.e.e.e.1.    e.e.e.e.w.                          ",
"      e.e.e.e.<.    w.e.e.e.e.                          ",
"      e.e.e.e.<.    <.e.e.e.e.T                         ",
"      e.e.e.e.6.      e.e.e.e.0.                        ",
"      e.e.e.e.8.      e.e.e.e.e.                        ",
"      e.e.e.e.0.      w.e.e.e.e.                        ",
"      e.e.e.e.8.      ;.e.e.e.e.2.                      ",
"      e.e.e.e.1.        e.e.e.e.e.                      ",
"      e.e.e.e.e.f       w.e.e.e.e.                      ",
"      e.e.e.e.w.h       :.e.e.e.e.>.                    ",
"      e.e.e.e.c           v 0.e.e.e.                    ",
"    =.e.e.e.=.z           f z :.e.e.7.                  ",
"      =.T <.0.T 1         f T 7.7.U <.                  ",
"      >.6.U T g <         <.e.8.l z 1.                  ",
"      e.e.e.x >             q.e.e.e.e.                  ",
"    6 e q 8 7 6             + <.s 8 7                   ",
"  V /  .| [ ( @               & e {  .(                 ",
"S.V V V V B                   n B d d B d.              ",
"S.p.V V S.                      H.Z V r.J.              ",
"  j.J.G.                          G.L.H.                "
};
