/* XPM */
static char *smal_water_girl[] = {
/* columns rows colors chars-per-pixel */
"32 32 218 2 ",
"   c #092C3B",
".  c #07212D",
"X  c #032C43",
"o  c #023C57",
"O  c #09374A",
"+  c #0A4259",
"@  c #15495A",
"#  c #044866",
"$  c #09516E",
"%  c #10516A",
"&  c #065779",
"*  c #155A76",
"=  c #184F66",
"-  c #23586E",
";  c #1C627B",
":  c #3E767C",
">  c #35687B",
",  c #4F5D4F",
"<  c #4D655C",
"1  c #4D685F",
"2  c #536153",
"3  c #506459",
"4  c #57695B",
"5  c #4B6A64",
"6  c #476D6B",
"7  c #486C68",
"8  c #45706E",
"9  c #426E76",
"0  c #427275",
"q  c #47787B",
"w  c #567E7B",
"e  c #5C7D77",
"r  c #52736E",
"t  c #657A6E",
"y  c #627C72",
"u  c #5B817D",
"i  c #6A877D",
"p  c #64867E",
"a  c #768C7D",
"s  c #7F927F",
"d  c #838D7A",
"f  c #86907D",
"g  c #92947C",
"h  c #015A82",
"j  c #015F88",
"k  c #04648C",
"l  c #14688A",
"z  c #036A96",
"x  c #07739D",
"c  c #1A7799",
"v  c #146E90",
"b  c #26758A",
"n  c #3B7984",
"m  c #367D8E",
"M  c #397C8B",
"N  c #3C7781",
"B  c #267994",
"V  c #347E92",
"C  c #3D7C93",
"Z  c #226C88",
"A  c #0273A3",
"S  c #037AAC",
"D  c #1A7AA1",
"F  c #027EB3",
"G  c #237EA4",
"H  c #467D83",
"J  c #368888",
"K  c #2E859C",
"L  c #2B8797",
"P  c #328195",
"I  c #30849A",
"U  c #3A8398",
"Y  c #348A94",
"T  c #1A87A9",
"R  c #0686B8",
"E  c #1089B5",
"W  c #2C89A4",
"Q  c #2A8CAC",
"!  c #2686A6",
"~  c #3C8EA4",
"^  c #3687A2",
"/  c #3592AD",
"(  c #3B93AB",
")  c #3C95A5",
"_  c #248DB3",
"`  c #2C94B5",
"'  c #2E97B9",
"]  c #2C99BD",
"[  c #2796B7",
"{  c #3395B3",
"}  c #3C9AB4",
"|  c #359DBD",
" . c #3B9DBA",
".. c #3698B4",
"X. c #2B91AF",
"o. c #3BA0BF",
"O. c #4C858B",
"+. c #45838C",
"@. c #538384",
"#. c #5A8582",
"$. c #528689",
"%. c #548A8D",
"&. c #5B8C8C",
"*. c #5D8986",
"=. c #478996",
"-. c #4C8A92",
";. c #448C9C",
":. c #488998",
">. c #538E93",
",. c #5C8E91",
"<. c #4C919C",
"1. c #549196",
"2. c #53949D",
"3. c #5A959B",
"4. c #5C9598",
"5. c #628984",
"6. c #6B8D85",
"7. c #648C88",
"8. c #63918E",
"9. c #6C938C",
"0. c #739085",
"q. c #7A9788",
"w. c #629595",
"e. c #689B98",
"r. c #779C96",
"t. c #68A29F",
"y. c #74A39C",
"u. c #7BA295",
"i. c #428EA0",
"p. c #4B94A2",
"a. c #4396AB",
"s. c #4599AD",
"d. c #4B9BAC",
"f. c #4895A6",
"g. c #549AA4",
"h. c #509CAA",
"j. c #5596A0",
"k. c #429CB3",
"l. c #489DB2",
"z. c #479AB5",
"x. c #5BA4AA",
"c. c #43A2BA",
"v. c #4AA2B8",
"b. c #56A9B8",
"n. c #6CAAAD",
"m. c #68A6A7",
"M. c #75A5A4",
"N. c #74A8A5",
"B. c #75A6A6",
"V. c #64ACB5",
"C. c #6BAAB3",
"Z. c #64ADBB",
"A. c #6BA9B5",
"S. c #018AC4",
"D. c #018CC9",
"F. c #0191CE",
"G. c #0895CD",
"H. c #009BDC",
"J. c #0197D4",
"K. c #1D9AC9",
"L. c #2C9EC4",
"P. c #249EC9",
"I. c #279DC6",
"U. c #319EC1",
"Y. c #2DA0C6",
"T. c #2BA2CA",
"R. c #33A1C4",
"E. c #39A5C6",
"W. c #29A4D0",
"Q. c #009DE0",
"!. c #01A5EB",
"~. c #00A4E9",
"^. c #00ADF5",
"/. c #05ACF5",
"(. c #00B3FE",
"). c #0CB5FC",
"_. c #17BAFD",
"`. c #13A5E0",
"'. c #2DB9F3",
"]. c #4CABC3",
"[. c #44A9C7",
"{. c #55ADC4",
"}. c #4DB1CE",
"|. c #5DB1C5",
" X c #54B2CC",
".X c #5BB3CA",
"XX c #55B0C4",
"oX c #46ADD1",
"OX c #4BB4D4",
"+X c #4BB7D9",
"@X c #54B5D3",
"#X c #54B8D6",
"$X c #56B5DA",
"%X c #61B0C3",
"&X c #65AEC0",
"*X c #47BCE5",
"=X c #2DC0FE",
"-X c #59DCDC",
";X c #4AC4C7",
":X c #43C5FB",
">X c #58CEFD",
",X c #5DD0FD",
"<X c #6CD5FE",
"1X c #63D1FE",
"2X c #7AD9FE",
"3X c #5FF3F3",
"4X c #62F8F8",
"5X c #859D87",
"6X c #8B9C84",
"7X c #8B9E8C",
"8X c #839788",
"9X c #939A84",
"0X c #919C88",
"qX c #879E91",
"wX c #83A08D",
"eX c #82A197",
"rX c #84DDFF",
"tX c #88DCFF",
/* pixels */
", , < < 7 6 8 0 : N n M M m V V V m m m M n : : 0 8 6 5 < 3 2 2 ",
"2 3 < 5 6 0 0 : n m m P P P I K K K K P V m n : : 0 6 5 5 3 2 2 ",
"2 < 5 7 8 0 : n m P I K I @ + $ @ B W K K P m M n : 0 6 5 3 4 4 ",
"3 1 5 6 0 : n m P K W W O F.(.(.^.& B Q W K P P M H H q w e t t ",
"< 5 6 0 : n m P K W Q @ D.'.,XE (.).% [ ` { / ~ i.;.-.$.#.e y t ",
"1 5 8 0 n M P I W Q _ ; <XU }.a.rXrXC I.I.] { / ~ ;.=.O.@.w e t ",
"5 7 0 q M U ^ / ` ] c * /   D.+ l ^ 9 B * [ ' { ( ~ ;.-.O.@.e y ",
"r q H +.;.~ / { _ ; $X(.(.H.X D.(.,XrX=X!.# ! ' { ( i.-.O.@.u e ",
"w w O.=.;.~ / ` # ).2X>X(.H.  J._.rXrX_.(.^.o ` { ( ~ ;.-.$.#.u ",
"w @.O.=.~ ( { Q z (.=XrXG.- *X* rXtX<X(.(.(.`.= ] { ( i.-.%.#.u ",
"w @.O.;.~ / ] Q # & A ! ;.<X<Xk > >X(.(.(._.rXH Z { ( f.:.%.#.u ",
"u @.-.;.~ { ] I.T A /.<Xd.{.oX(.A o k z h * > G   | } f.:.>.&.5.",
"u @.-.;.( { ] I.% (.(.T -X4XJ ^.(.(.l ;Xb !.H.X . {  .a.<.>.&.5.",
"u $.-.;.( { ] P.& (.(.T 4XY -XF.(.(.) J 3XS (.& I... .a.<.>.&.5.",
"#.$.-.;.( ..L.T.x (.(.E T [ L G.(.^.c Q ~ E (.& Y.|  .a.p.1.&.5.",
"#.%.>.p.a. .U.T.c (.(.(.(.(.(.(.(.(.(.(._.(.(.* Y.|  .a.p.1.,.7.",
"5.&.1.p.a. .U.T.c R (.(.(.(.(.(.(.(.^.^.(.(.G.c Y.|  .a.p.1.8.6.",
"5.&.1.p.a. .| Y.P.o (.(.(.(.(.(.(.H.o !.(.(.& T.R.| k.d.2.4.8.6.",
"5.&.>.<.f. .| L.T.c z (.(.:XF & O # !.(.(.x c T.R.| k.d.2.4.8.6.",
"p *.%.<.p.a. .U.Y._ o R (.(.(.^.:X,X).(.A v T.T.o. .a.g.1.w.8.6.",
"p 5.&.1.p.a. .| U.; D.J.h ~.(.(.1X<XP.& D W.T.R.| k.d.g.1.w.9.0.",
"i 5.&.>.2.p.a. .| O ~.z l k h h l l # K.W.T.R.o.k.l.h.3.w.w.9.0.",
"i 5.7.,.2.p.a.k.|   ; L.c H.J.!.Q.D.A v T.R.E.| k.d.g.1.w.9.0.a ",
"i 6.7.,.1.j.f.a. .| R.R.x k R Q.H.D.$ F Q o.k.k.l.h.3.w.9.0.0.d ",
"i 6.6.8.4.2.g.d.k.v.o.E.& * S H.H.D.* z B v.c.l.d.g.3.e.r.q.8X8X",
"i 6.6.8.4.3.g.h.v.v.v.E.| E.x H.F G.b [.[.v.v.b.x.x.t.e.r.q.5X6X",
"a 0.9.e.e.x.x.b.b.].].[.[.oXA F $ D.B [.].].b.b.x.m.t.y.u.q.5X6X",
"f r.e.m.m.V.b.b.XX X}.OXOX+Xx k B D.B }. X X|.V.m.m.y.y.u.wX5X6X",
"6Xy.B.n.n.V.Z.|..X X@XOX+X+XB b [.l ( @X X X|.n.n.N.y.u.wXqX6X6X",
"6Xr.y.B.n.C.Z.%X.X.X@X@X@X#X#X#X@X@X X.X.X|.Z.N.N.M.y.eXwX7X6Xg ",
"f 8Xr.r.B.B.C.A.%X%X.X.X.X.X.X.X.X|.|.%XZ.Z.C.B.M.y.eXqX7X9X9Xg ",
"d d f 8X8Xr.r.B.C.C.Z.Z.Z.V.Z.Z.V.V.C.n.n.N.B.M.eXeXqX7X0X9X9Xg "
};
